<?xml version="1.0" encoding="UTF-8"?>
<!DOCTYPE svg PUBLIC "-//W3C//DTD SVG 1.1//EN" "http://www.w3.org/Graphics/SVG/1.1/DTD/svg11.dtd">
<svg xmlns="http://www.w3.org/2000/svg" version="1.1" width="500px" height="500px" style="shape-rendering:geometricPrecision; text-rendering:geometricPrecision; image-rendering:optimizeQuality; fill-rule:evenodd; clip-rule:evenodd" xmlns:xlink="http://www.w3.org/1999/xlink">
<g><path style="opacity:1" fill="#000000" d="M -0.5,-0.5 C 166.167,-0.5 332.833,-0.5 499.5,-0.5C 499.5,166.167 499.5,332.833 499.5,499.5C 332.833,499.5 166.167,499.5 -0.5,499.5C -0.5,332.833 -0.5,166.167 -0.5,-0.5 Z"/></g>
<g><path style="opacity:1" fill="#161616" d="M 291.5,178.5 C 309.465,157.859 314.632,134.192 307,107.5C 298.037,83.4305 280.871,74.0972 255.5,79.5C 243.373,79.8042 231.373,81.1375 219.5,83.5C 219.335,80.1501 219.502,76.8168 220,73.5C 243.012,67.8352 266.345,63.8352 290,61.5C 309.527,62.2954 323.193,71.6287 331,89.5C 336.66,107.358 336.994,125.358 332,143.5C 326.504,157.682 317.004,168.182 303.5,175C 299.492,176.113 295.659,177.613 292,179.5C 291.601,179.272 291.435,178.938 291.5,178.5 Z"/></g>
<g><path style="opacity:1" fill="#4049e0" d="M 246.5,108.5 C 245.081,109.451 243.415,109.784 241.5,109.5C 242.367,128.174 243.367,146.841 244.5,165.5C 237.902,166.933 231.236,167.933 224.5,168.5C 223.303,149.173 222.303,129.84 221.5,110.5C 228.001,109.556 234.501,108.556 241,107.5C 242.924,107.581 244.757,107.914 246.5,108.5 Z"/></g>
<g><path style="opacity:1" fill="#151616" d="M 246.5,108.5 C 254.406,112.28 258.906,118.613 260,127.5C 262.902,140.778 259.736,152.278 250.5,162C 248.612,163.394 246.612,164.56 244.5,165.5C 243.367,146.841 242.367,128.174 241.5,109.5C 243.415,109.784 245.081,109.451 246.5,108.5 Z"/></g>
<g><path style="opacity:1" fill="#161617" d="M 273.5,187.5 C 274.974,208.151 275.807,228.818 276,249.5C 275.348,251.723 273.848,252.89 271.5,253C 265.712,254.603 259.879,255.769 254,256.5C 251.226,255.236 249.726,256.236 249.5,259.5C 247.823,238.168 246.49,216.668 245.5,195C 245.755,193.674 246.422,192.674 247.5,192C 256.194,190.607 264.861,189.107 273.5,187.5 Z"/></g>
<g><path style="opacity:1" fill="#4149e2" d="M 291.5,178.5 C 285.74,182.047 279.74,185.047 273.5,187.5C 264.861,189.107 256.194,190.607 247.5,192C 246.422,192.674 245.755,193.674 245.5,195C 246.49,216.668 247.823,238.168 249.5,259.5C 249.824,263.555 249.491,267.555 248.5,271.5C 241.987,273.532 235.32,275.032 228.5,276C 225.773,276.818 223.106,276.652 220.5,275.5C 223.787,274.96 226.62,273.626 229,271.5C 228.901,245.459 227.735,219.459 225.5,193.5C 235.582,192.156 245.582,190.323 255.5,188C 271.065,182.101 281.565,171.268 287,155.5C 293.757,133.484 291.09,112.817 279,93.5C 272.681,86.098 264.847,81.4314 255.5,79.5C 280.871,74.0972 298.037,83.4305 307,107.5C 314.632,134.192 309.465,157.859 291.5,178.5 Z"/></g>
<g><path style="opacity:1" fill="#3f47da" d="M 60.5,352.5 C 56.1667,352.5 51.8333,352.5 47.5,352.5C 47.5,362.833 47.5,373.167 47.5,383.5C 45.1667,383.5 42.8333,383.5 40.5,383.5C 40.5,360.833 40.5,338.167 40.5,315.5C 47.8409,315.334 55.1742,315.5 62.5,316C 73.3758,322.287 76.5424,331.454 72,343.5C 70.0584,348.944 66.225,351.944 60.5,352.5 Z"/></g>
<g><path style="opacity:1" fill="#4047dc" d="M 230.5,315.5 C 232.833,315.5 235.167,315.5 237.5,315.5C 237.5,338.167 237.5,360.833 237.5,383.5C 235.167,383.5 232.833,383.5 230.5,383.5C 230.5,360.833 230.5,338.167 230.5,315.5 Z"/></g>
<g><path style="opacity:1" fill="#010104" d="M 48.5,321.5 C 65.1004,320.615 70.2671,327.948 64,343.5C 62.871,345.141 61.371,346.141 59.5,346.5C 55.9957,346.073 52.329,346.073 48.5,346.5C 48.5,338.167 48.5,329.833 48.5,321.5 Z"/></g>
<g><path style="opacity:1" fill="#3f47db" d="M 377.5,352.5 C 373.5,352.5 369.5,352.5 365.5,352.5C 365.5,362.833 365.5,373.167 365.5,383.5C 363.167,383.5 360.833,383.5 358.5,383.5C 358.5,360.833 358.5,338.167 358.5,315.5C 365.508,315.334 372.508,315.5 379.5,316C 387.586,318.999 391.586,324.833 391.5,333.5C 391.861,339.91 389.861,345.41 385.5,350C 382.978,351.341 380.311,352.174 377.5,352.5 Z"/></g>
<g><path style="opacity:1" fill="#010102" d="M 377.5,322.5 C 382.588,324.329 384.921,327.995 384.5,333.5C 384.589,337.067 383.755,340.4 382,343.5C 380.871,345.141 379.371,346.141 377.5,346.5C 373.833,346.5 370.167,346.5 366.5,346.5C 366.5,338.5 366.5,330.5 366.5,322.5C 370.167,322.5 373.833,322.5 377.5,322.5 Z"/></g>
<g><path style="opacity:1" fill="#17194f" d="M 48.5,321.5 C 48.5,329.833 48.5,338.167 48.5,346.5C 52.329,346.073 55.9957,346.073 59.5,346.5C 55.7016,347.483 51.7016,347.817 47.5,347.5C 47.1736,338.651 47.507,329.984 48.5,321.5 Z"/></g>
<g><path style="opacity:1" fill="#13174b" d="M 377.5,322.5 C 373.833,322.5 370.167,322.5 366.5,322.5C 366.5,330.5 366.5,338.5 366.5,346.5C 370.167,346.5 373.833,346.5 377.5,346.5C 373.702,347.483 369.702,347.817 365.5,347.5C 365.5,338.833 365.5,330.167 365.5,321.5C 369.702,321.183 373.702,321.517 377.5,322.5 Z"/></g>
<g><path style="opacity:1" fill="#222472" d="M 123.5,334.5 C 123.5,356.833 123.5,379.167 123.5,401.5C 125.5,401.5 127.5,401.5 129.5,401.5C 127.393,402.468 125.059,402.802 122.5,402.5C 122.169,379.661 122.503,356.994 123.5,334.5 Z"/></g>
<g><path style="opacity:1" fill="#4149e3" d="M 209.5,334.5 C 209.337,336.857 209.503,339.19 210,341.5C 210.717,340.956 211.217,340.289 211.5,339.5C 212.023,337.292 213.356,335.792 215.5,335C 218.167,334.333 220.833,334.333 223.5,335C 224.333,337.081 224.333,339.248 223.5,341.5C 217.56,340.069 213.393,342.069 211,347.5C 209.585,359.438 209.085,371.438 209.5,383.5C 207.5,383.5 205.5,383.5 203.5,383.5C 203.5,367.167 203.5,350.833 203.5,334.5C 205.5,334.5 207.5,334.5 209.5,334.5 Z"/></g>
<g><path style="opacity:1" fill="#1d2266" d="M 209.5,334.5 C 210.167,336.167 210.833,337.833 211.5,339.5C 211.217,340.289 210.717,340.956 210,341.5C 209.503,339.19 209.337,336.857 209.5,334.5 Z"/></g>
<g><path style="opacity:1" fill="#353ab2" d="M 401.5,334.5 C 401.5,350.5 401.5,366.5 401.5,382.5C 403.5,382.5 405.5,382.5 407.5,382.5C 405.393,383.468 403.059,383.802 400.5,383.5C 400.17,366.991 400.504,350.658 401.5,334.5 Z"/></g>
<g><path style="opacity:1" fill="#4149e3" d="M 401.5,334.5 C 403.5,334.5 405.5,334.5 407.5,334.5C 407.337,336.857 407.503,339.19 408,341.5C 410.244,335.056 414.744,332.722 421.5,334.5C 421.682,336.591 421.348,338.591 420.5,340.5C 413.855,340.226 409.688,343.226 408,349.5C 407.5,360.495 407.333,371.495 407.5,382.5C 405.5,382.5 403.5,382.5 401.5,382.5C 401.5,366.5 401.5,350.5 401.5,334.5 Z"/></g>
<g><path style="opacity:1" fill="#4048dd" d="M 297.5,333.5 C 308.604,332.614 314.271,337.614 314.5,348.5C 312.5,348.5 310.5,348.5 308.5,348.5C 307.94,340.877 303.94,338.211 296.5,340.5C 292.545,344.629 292.545,348.796 296.5,353C 301.167,355.333 305.833,357.667 310.5,360C 316.768,366.519 317.101,373.352 311.5,380.5C 310.3,381.531 308.966,382.365 307.5,383C 300.715,384.515 294.548,383.348 289,379.5C 286.994,376.464 286.16,373.131 286.5,369.5C 288.5,369.5 290.5,369.5 292.5,369.5C 293.499,377.668 297.832,380.168 305.5,377C 309.41,372.925 309.41,368.925 305.5,365C 300.833,362.667 296.167,360.333 291.5,358C 285.206,351.306 284.873,344.306 290.5,337C 292.713,335.384 295.047,334.217 297.5,333.5 Z"/></g>
<g><path style="opacity:1" fill="#4148de" d="M 330.5,333.5 C 341.836,332.462 347.836,337.462 348.5,348.5C 346.5,348.5 344.5,348.5 342.5,348.5C 342.598,342.764 339.765,339.764 334,339.5C 329.305,339.859 327.138,342.359 327.5,347C 327.833,348.5 328.167,350 328.5,351.5C 333.675,354.588 339.008,357.421 344.5,360C 351.079,366.967 351.079,373.967 344.5,381C 339.43,383.424 334.097,384.091 328.5,383C 322.114,380.731 319.448,376.231 320.5,369.5C 322.5,369.5 324.5,369.5 326.5,369.5C 327.082,376.969 331.082,379.802 338.5,378C 342.563,374.502 343.229,370.502 340.5,366C 336.112,363.139 331.446,360.806 326.5,359C 318.919,351.623 318.586,343.956 325.5,336C 327.315,335.243 328.981,334.41 330.5,333.5 Z"/></g>
<g><path style="opacity:1" fill="#4148df" d="M 92.5,333.5 C 101.198,332.264 107.365,335.597 111,343.5C 111.5,356.829 111.667,370.163 111.5,383.5C 109.167,383.5 106.833,383.5 104.5,383.5C 104.649,382.448 104.483,381.448 104,380.5C 96.6885,386.025 89.6885,385.691 83,379.5C 77.536,360.778 84.7026,352.445 104.5,354.5C 105.947,348.102 103.947,343.269 98.5,340C 92.9198,339.414 89.9198,341.914 89.5,347.5C 87.1667,347.5 84.8333,347.5 82.5,347.5C 82.429,340.281 85.7624,335.615 92.5,333.5 Z"/></g>
<g><path style="opacity:1" fill="#4048de" d="M 131.5,380.5 C 131.44,379.957 131.107,379.624 130.5,379.5C 129.503,386.803 129.169,394.137 129.5,401.5C 127.5,401.5 125.5,401.5 123.5,401.5C 123.5,379.167 123.5,356.833 123.5,334.5C 125.5,334.5 127.5,334.5 129.5,334.5C 129.343,335.873 129.51,337.207 130,338.5C 136.593,331.901 143.26,331.901 150,338.5C 151.197,341.089 152.197,343.756 153,346.5C 153.667,354.833 153.667,363.167 153,371.5C 150.937,382.109 144.77,385.943 134.5,383C 133.058,382.623 132.058,381.79 131.5,380.5 Z"/></g>
<g><path style="opacity:1" fill="#06040e" d="M 134.5,339.5 C 139.739,338.959 143.572,340.959 146,345.5C 146.667,354.167 146.667,362.833 146,371.5C 143.163,377.542 138.663,379.042 132.5,376C 131.137,374.055 130.303,371.888 130,369.5C 129.333,361.833 129.333,354.167 130,346.5C 130.904,343.767 132.404,341.433 134.5,339.5 Z"/></g>
<g><path style="opacity:1" fill="#4149e1" d="M 173.5,333.5 C 180.675,332.74 186.508,335.073 191,340.5C 192.384,347.411 192.884,354.411 192.5,361.5C 184.833,361.5 177.167,361.5 169.5,361.5C 169.335,364.85 169.502,368.183 170,371.5C 171.829,377.158 175.663,378.992 181.5,377C 183.86,375.635 185.527,373.635 186.5,371C 188.473,370.505 190.473,370.338 192.5,370.5C 189.934,382.625 182.6,386.792 170.5,383C 167.667,381.5 165.5,379.333 164,376.5C 162.454,365.55 162.121,354.55 163,343.5C 165.106,338.557 168.606,335.224 173.5,333.5 Z"/></g>
<g><path style="opacity:1" fill="#020208" d="M 185.5,345.5 C 185.5,348.833 185.5,352.167 185.5,355.5C 180.167,355.5 174.833,355.5 169.5,355.5C 168.285,349.299 169.952,344.132 174.5,340C 179.85,338.675 183.517,340.508 185.5,345.5 Z"/></g>
<g><path style="opacity:1" fill="#4047dc" d="M 437.5,333.5 C 443.275,332.775 448.608,333.941 453.5,337C 455.761,339.772 457.261,342.938 458,346.5C 458.92,356.242 458.587,365.908 457,375.5C 450.577,384.813 442.411,386.646 432.5,381C 429.819,378.806 428.319,375.973 428,372.5C 427.333,362.833 427.333,353.167 428,343.5C 430.022,338.98 433.189,335.647 437.5,333.5 Z"/></g>
<g><path style="opacity:1" fill="#040309" d="M 439.5,339.5 C 445.305,338.804 449.139,341.138 451,346.5C 451.667,354.833 451.667,363.167 451,371.5C 448.752,377.233 444.586,379.067 438.5,377C 436.951,375.786 435.785,374.286 435,372.5C 434.333,363.5 434.333,354.5 435,345.5C 436.332,343.34 437.832,341.34 439.5,339.5 Z"/></g>
<g><path style="opacity:1" fill="#272b88" d="M 185.5,345.5 C 186.482,348.962 186.815,352.629 186.5,356.5C 180.642,356.822 174.975,356.489 169.5,355.5C 174.833,355.5 180.167,355.5 185.5,355.5C 185.5,352.167 185.5,348.833 185.5,345.5 Z"/></g>
<g><path style="opacity:1" fill="#181950" d="M 60.5,352.5 C 56.7016,353.483 52.7016,353.817 48.5,353.5C 48.8274,363.681 48.494,373.681 47.5,383.5C 47.5,373.167 47.5,362.833 47.5,352.5C 51.8333,352.5 56.1667,352.5 60.5,352.5 Z"/></g>
<g><path style="opacity:1" fill="#4048dd" d="M 258.5,333.5 C 268.37,332.339 274.87,336.339 278,345.5C 278.499,350.823 278.666,356.156 278.5,361.5C 270.5,361.5 262.5,361.5 254.5,361.5C 253.708,367.279 255.041,372.446 258.5,377C 264.802,379.013 269.136,377.013 271.5,371C 273.473,370.505 275.473,370.338 277.5,370.5C 275.86,381.278 269.526,385.778 258.5,384C 254.658,382.332 251.491,379.832 249,376.5C 247.405,365.907 247.072,355.24 248,344.5C 249.711,338.959 253.211,335.292 258.5,333.5 Z"/></g>
<g><path style="opacity:1" fill="#04030b" d="M 260.5,339.5 C 270.021,340.49 273.688,345.824 271.5,355.5C 265.833,355.5 260.167,355.5 254.5,355.5C 253.01,348.653 255.01,343.32 260.5,339.5 Z"/></g>
<g><path style="opacity:1" fill="#151950" d="M 377.5,352.5 C 374.038,353.482 370.371,353.815 366.5,353.5C 366.827,363.681 366.494,373.681 365.5,383.5C 365.5,373.167 365.5,362.833 365.5,352.5C 369.5,352.5 373.5,352.5 377.5,352.5 Z"/></g>
<g><path style="opacity:1" fill="#030309" d="M 94.5,360.5 C 97.8333,360.5 101.167,360.5 104.5,360.5C 104.5,363.5 104.5,366.5 104.5,369.5C 104.456,373.09 102.789,375.59 99.5,377C 89.6878,379.188 85.8545,375.354 88,365.5C 89.7772,363.21 91.9438,361.543 94.5,360.5 Z"/></g>
<g><path style="opacity:1" fill="#292c87" d="M 94.5,360.5 C 97.9619,359.518 101.629,359.185 105.5,359.5C 105.813,363.042 105.479,366.375 104.5,369.5C 104.5,366.5 104.5,363.5 104.5,360.5C 101.167,360.5 97.8333,360.5 94.5,360.5 Z"/></g>
<g><path style="opacity:1" fill="#191c57" d="M 131.5,380.5 C 130.833,387.5 130.167,394.5 129.5,401.5C 129.169,394.137 129.503,386.803 130.5,379.5C 131.107,379.624 131.44,379.957 131.5,380.5 Z"/></g>
<g><path style="opacity:1" fill="#3b3fc4" d="M 279.5,429.5 C 282.247,429.187 284.914,429.52 287.5,430.5C 286.467,431.452 285.3,431.452 284,430.5C 282.72,430.613 281.887,431.28 281.5,432.5C 283.781,433.277 285.948,434.277 288,435.5C 288.72,437.112 288.554,438.612 287.5,440C 284.773,440.818 282.106,440.652 279.5,439.5C 281.833,438.833 284.167,438.167 286.5,437.5C 284.368,436.402 282.202,435.402 280,434.5C 279.506,432.866 279.34,431.199 279.5,429.5 Z"/></g>
<g><path style="opacity:1" fill="#3a3dc1" d="M 325.5,428.5 C 331.377,428.206 333.877,430.872 333,436.5C 330.839,440.124 327.672,441.291 323.5,440C 320.414,435.421 321.081,431.588 325.5,428.5 Z"/></g>
<g><path style="opacity:1" fill="#3b40c7" d="M 165.5,425.5 C 168.85,425.335 172.183,425.502 175.5,426C 179.5,429 179.5,432 175.5,435C 172.986,436.252 170.32,436.752 167.5,436.5C 167.762,437.978 167.429,439.311 166.5,440.5C 165.506,435.544 165.173,430.544 165.5,425.5 Z"/></g>
<g><path style="opacity:1" fill="#0e091a" d="M 167.5,427.5 C 169.857,427.337 172.19,427.503 174.5,428C 176.032,430.33 175.698,432.33 173.5,434C 171.527,434.495 169.527,434.662 167.5,434.5C 167.5,432.167 167.5,429.833 167.5,427.5 Z"/></g>
<g><path style="opacity:1" fill="#3c40cb" d="M 242.5,424.5 C 243.812,426.743 244.478,429.41 244.5,432.5C 244.167,435.167 243.833,437.833 243.5,440.5C 242.505,435.208 242.172,429.875 242.5,424.5 Z"/></g>
<g><path style="opacity:1" fill="#393bbb" d="M 268.5,428.5 C 270.827,428.247 272.827,428.914 274.5,430.5C 272.674,430.92 270.674,430.92 268.5,430.5C 268.351,431.552 268.517,432.552 269,433.5C 270.734,434.249 272.567,434.749 274.5,435C 275.833,436.667 275.833,438.333 274.5,440C 271.446,440.821 268.446,440.655 265.5,439.5C 267.833,438.833 270.167,438.167 272.5,437.5C 271.009,435.988 269.176,434.988 267,434.5C 266.257,432.126 266.757,430.126 268.5,428.5 Z"/></g>
<g><path style="opacity:1" fill="#080613" d="M 326.5,430.5 C 331.19,430.94 332.524,433.274 330.5,437.5C 325.396,439.429 323.229,437.763 324,432.5C 324.995,431.934 325.828,431.267 326.5,430.5 Z"/></g>
<g><path style="opacity:1" fill="#3a40c5" d="M 231.5,428.5 C 233.482,428.995 235.482,429.495 237.5,430C 235.667,430.5 234.5,431.667 234,433.5C 233.814,435.9 233.314,438.234 232.5,440.5C 231.509,436.555 231.176,432.555 231.5,428.5 Z"/></g>
<g><path style="opacity:1" fill="#373bb7" d="M 219.5,428.5 C 223.5,429.167 225.833,431.5 226.5,435.5C 223.428,435.183 220.428,435.516 217.5,436.5C 217.709,437.086 218.043,437.586 218.5,438C 220.833,438.333 223.167,438.667 225.5,439C 216.901,442.064 213.734,439.231 216,430.5C 217.302,429.915 218.469,429.249 219.5,428.5 Z"/></g>
<g><path style="opacity:1" fill="#060711" d="M 219.5,430.5 C 221.09,430.628 222.423,431.295 223.5,432.5C 221.5,433.833 219.5,433.833 217.5,432.5C 218.243,431.818 218.909,431.151 219.5,430.5 Z"/></g>
<g><path style="opacity:1" fill="#3236a7" d="M 293.5,425.5 C 297.911,425.021 302.078,425.688 306,427.5C 307.379,431.475 306.213,434.309 302.5,436C 300.527,436.495 298.527,436.662 296.5,436.5C 296.5,437.833 296.5,439.167 296.5,440.5C 295.5,440.5 294.5,440.5 293.5,440.5C 293.5,435.5 293.5,430.5 293.5,425.5 Z"/></g>
<g><path style="opacity:1" fill="#060510" d="M 296.5,427.5 C 298.924,427.192 301.257,427.526 303.5,428.5C 304.747,430.042 304.747,431.542 303.5,433C 301.19,433.497 298.857,433.663 296.5,433.5C 296.5,431.5 296.5,429.5 296.5,427.5 Z"/></g>
<g><path style="opacity:1" fill="#393fc5" d="M 183.5,429.5 C 186.247,429.187 188.914,429.52 191.5,430.5C 192.417,433.758 192.751,437.091 192.5,440.5C 189.223,440.784 186.057,440.451 183,439.5C 182.438,434.888 184.605,432.554 189.5,432.5C 189.113,431.28 188.28,430.613 187,430.5C 185.535,431.33 184.035,431.496 182.5,431C 183.056,430.617 183.389,430.117 183.5,429.5 Z"/></g>
<g><path style="opacity:1" fill="#3e41ce" d="M 198.5,428.5 C 199.75,428.577 200.583,429.244 201,430.5C 204.199,427.871 207.199,428.204 210,431.5C 211.352,439.15 208.352,441.817 201,439.5C 200.808,441.577 200.308,443.577 199.5,445.5C 198.505,439.872 198.171,434.206 198.5,428.5 Z"/></g>
<g><path style="opacity:1" fill="#080713" d="M 203.5,430.5 C 208.182,430.875 209.516,433.208 207.5,437.5C 202.396,439.429 200.229,437.763 201,432.5C 201.995,431.934 202.828,431.267 203.5,430.5 Z"/></g>
<g><path style="opacity:1" fill="#4146d8" d="M 311.5,429.5 C 313.39,430.18 315.39,430.347 317.5,430C 315.667,430.5 314.5,431.667 314,433.5C 313.814,435.9 313.314,438.234 312.5,440.5C 311.511,436.893 311.177,433.226 311.5,429.5 Z"/></g>
<g><path style="opacity:1" fill="#0d0918" d="M 185.5,435.5 C 191.418,435.352 191.918,436.686 187,439.5C 184.5,438.842 184,437.509 185.5,435.5 Z"/></g>
<g><path style="opacity:1" fill="#3b3dbf" d="M 253.5,428.5 C 258.682,428.018 261.349,430.351 261.5,435.5C 258.428,435.183 255.428,435.516 252.5,436.5C 252.709,437.086 253.043,437.586 253.5,438C 256.097,438.281 258.43,438.448 260.5,438.5C 252.806,442.654 249.639,440.321 251,431.5C 252.045,430.627 252.878,429.627 253.5,428.5 Z"/></g>
<g><path style="opacity:1" fill="#060914" d="M 254.5,430.5 C 256.681,430.284 258.347,431.117 259.5,433C 257.167,433.667 254.833,433.667 252.5,433C 253.381,432.292 254.047,431.458 254.5,430.5 Z"/></g>
</svg>
